<?xml version="1.0" standalone="no"?>
<!DOCTYPE svg PUBLIC "-//W3C//DTD SVG 20010904//EN"
 "http://www.w3.org/TR/2001/REC-SVG-20010904/DTD/svg10.dtd">
<svg version="1.0" xmlns="http://www.w3.org/2000/svg"
 width="400.000000pt" height="400.000000pt" viewBox="0 0 400.000000 400.000000"
 preserveAspectRatio="xMidYMid meet">
<metadata>
Created by potrace 1.14, written by Peter Selinger 2001-2017
</metadata>
<g transform="translate(0.000000,400.000000) scale(0.100000,-0.100000)"
fill="#000000" stroke="none">
<path d="M2049 3749 c-71 -36 -99 -86 -94 -167 3 -47 1 -53 -23 -65 -15 -8
-40 -21 -57 -30 -28 -15 -31 -15 -51 4 -94 89 -256 28 -271 -101 -6 -46 10
-98 37 -128 l20 -22 -30 -54 c-30 -52 -33 -54 -58 -45 -34 13 -99 9 -134 -8
-73 -35 -106 -140 -69 -217 18 -37 69 -80 96 -81 11 0 12 -40 2 -100 -4 -22
-10 -57 -13 -77 -3 -21 -11 -38 -17 -39 -7 -1 -50 -1 -97 -1 l-86 -1 1 -62 1
-61 -45 -1 c-25 0 -53 -1 -62 -2 -14 -1 -16 -18 -16 -126 l1 -125 35 -1 c90
-2 86 0 87 -49 1 -25 2 -52 3 -61 1 -12 13 -15 59 -14 71 2 82 -2 77 -27 -3
-11 -7 -46 -10 -77 -3 -31 -8 -69 -10 -86 -2 -16 -7 -57 -10 -90 -3 -33 -8
-71 -10 -85 -2 -14 -7 -54 -11 -90 -4 -36 -8 -76 -9 -90 -9 -70 -15 -126 -20
-178 -3 -31 -8 -73 -11 -93 -2 -20 -7 -56 -9 -80 -4 -40 -9 -84 -21 -179 -2
-19 -6 -60 -10 -90 -3 -30 -7 -68 -10 -85 -2 -16 -6 -58 -9 -93 -4 -35 -8 -73
-11 -85 -2 -12 -6 -51 -10 -87 -3 -36 -7 -77 -10 -91 -2 -14 -6 -52 -9 -85 -3
-32 -8 -74 -10 -91 -6 -42 7 -42 26 -1 29 62 74 143 82 146 4 2 7 8 7 14 0 5
16 37 35 69 19 33 35 66 35 74 0 7 4 15 8 17 9 3 112 213 127 258 1 3 12 28
25 55 13 28 24 56 26 63 9 44 31 -13 58 -153 3 -11 10 -40 16 -65 7 -25 13
-54 15 -65 1 -11 5 -27 8 -35 3 -8 15 -58 27 -110 12 -52 26 -108 31 -124 5
-15 6 -32 3 -37 -3 -5 -1 -9 4 -9 5 0 12 -17 15 -37 8 -53 17 -95 22 -103 2
-4 7 -22 10 -41 7 -42 24 -62 26 -31 2 24 3 29 12 52 3 8 8 29 11 45 7 35 14
60 16 60 1 0 3 7 5 15 1 8 24 94 49 190 26 96 48 182 50 190 2 8 9 35 16 60 7
25 14 52 15 60 2 8 4 15 5 15 1 0 3 9 5 20 8 41 28 110 35 118 4 5 10 -4 14
-18 4 -15 15 -46 26 -69 10 -22 45 -100 78 -172 58 -130 216 -431 247 -469 14
-19 15 -17 10 25 -2 25 -7 61 -10 81 -2 19 -7 62 -9 95 -3 32 -7 70 -10 84 -4
25 -15 122 -21 195 -2 22 -6 61 -9 88 -8 67 -16 136 -21 182 -2 22 -7 65 -11
95 -3 30 -8 71 -9 90 -2 19 -4 35 -5 35 -1 0 -3 23 -5 50 -2 28 -6 68 -9 90
-3 22 -8 67 -12 100 -3 33 -8 74 -10 90 -2 17 -6 55 -9 85 -11 101 -12 115
-20 174 -4 32 -9 78 -10 101 -1 22 -4 45 -7 51 -3 5 -5 27 -4 49 l1 40 53 0
52 -1 1 46 c1 25 1 53 0 62 -2 15 6 17 49 17 28 -1 54 2 58 6 8 8 11 245 3
246 -3 0 -28 2 -56 2 l-50 2 -3 63 -3 62 -82 -2 -81 -3 -6 31 c-7 32 -5 135 4
194 11 79 53 174 97 221 16 17 29 34 29 38 0 11 125 78 164 88 11 2 35 6 52 7
17 2 35 5 40 8 10 5 13 5 74 -6 130 -24 231 -136 233 -260 0 -69 -7 -96 -37
-145 -34 -54 -94 -85 -167 -85 -68 -1 -113 21 -153 75 l-30 39 -45 -26 c-25
-15 -56 -36 -68 -47 -13 -11 -23 -17 -23 -13 0 4 -7 0 -16 -8 -14 -15 -14 -20
10 -59 69 -119 193 -185 356 -191 30 -1 62 1 71 5 11 6 28 -3 56 -29 77 -72
180 -70 241 4 38 45 47 92 31 154 -10 40 -10 50 2 63 8 8 26 35 39 59 21 41
28 46 66 51 147 16 202 205 84 290 -21 15 -50 28 -64 29 -19 2 -27 9 -31 30
-4 15 -6 30 -6 33 1 3 -6 19 -15 36 -15 30 -15 33 5 58 49 61 58 93 48 162 -9
62 -81 120 -150 123 -40 2 -109 -23 -122 -44 -7 -11 -57 11 -89 39 -10 9 -21
15 -25 13 -3 -1 -8 21 -11 50 -9 95 -74 161 -160 163 -66 2 -130 -41 -156
-105 l-14 -35 -65 3 c-62 4 -66 5 -80 35 -18 42 -33 58 -73 80 -44 25 -102 27
-143 6z"/>
</g>
</svg>
